<svg height="467pt" viewBox="0 -76 467.93111 467" width="467pt" xmlns="http://www.w3.org/2000/svg"><path d="m381.074219 138.160156c2.742187-1.859375 6.472656-1.144531 8.332031 1.601563l5.101562 7.523437c1.832032-4.4375.542969-9.546875-3.167968-12.589844-3.714844-3.042968-8.980469-3.292968-12.972656-.625-3.988282 2.671876-5.761719 7.636719-4.363282 12.230469 1.394532 4.589844 5.632813 7.730469 10.433594 7.726563.046875 0 .089844-.003906.136719-.003906l-5.097657-7.527344c-1.863281-2.742188-1.148437-6.476563 1.597657-8.335938zm0 0"/><path d="m429.039062 253.183594c0-2.3125-1.878906-4.191406-4.191406-4.191406-2.316406 0-4.191406 1.878906-4.191406 4.191406 0 2.316406 1.878906 4.191406 4.191406 4.191406s4.1875-1.875 4.191406-4.191406zm0 0"/><path d="m319.519531 44.191406c4.523438-4.496094 7.058594-10.621094 7.042969-17v-12.875c-15.023438 8.917969-27.414062 21.65625-35.910156 36.921875h11.863281c6.378906.015625 12.503906-2.519531 17.003906-7.046875zm0 0"/><path d="m414.925781 177.375c18.019531-16.074219 20.480469-43.375 5.621094-62.414062-14.855469-19.035157-41.9375-23.28125-61.90625-9.703126-19.972656 13.578126-25.984375 40.320313-13.746094 61.140626 12.238281 20.816406 38.53125 28.570312 60.105469 17.722656l-13.121094-19.34375c-10.878906 3.757812-22.855468-1.117188-28.015625-11.40625-5.160156-10.289063-1.902343-22.804688 7.613281-29.277344 9.519532-6.46875 22.355469-4.890625 30.027344 3.6875 7.667969 8.582031 7.796875 21.515625.300782 30.25zm-45.207031-8.992188c4.480469 2.605469 9.566406 3.980469 14.746094 3.980469.410156 0 .769531-.003906 1.148437-.019531 2.152344-.105469 4.195313.953125 5.351563 2.773438 1.15625 1.816406 1.25 4.117187.242187 6.023437-1.007812 1.90625-2.960937 3.125-5.113281 3.191406-.535156.023438-1.066406.03125-1.59375.03125h-.039062c-7.296876-.003906-14.464844-1.9375-20.773438-5.605469-1.867188-1.070312-3.019531-3.058593-3.019531-5.210937 0-2.15625 1.15625-4.144531 3.027343-5.210937 1.871094-1.066407 4.171876-1.046876 6.023438.046874zm-2.609375-48.800781c-4.484375 3.296875-7.933594 7.808594-9.933594 13-1.210937 3.0625-4.667969 4.574219-7.738281 3.386719s-4.613281-4.628906-3.453125-7.710938c2.824219-7.332031 7.691406-13.699218 14.023437-18.351562 1.726563-1.300781 4.019532-1.570312 6.003907-.710938 1.980469.863282 3.347656 2.722657 3.574219 4.871094.226562 2.152344-.71875 4.257813-2.476563 5.515625zm37.855469 2.71875c-2.363282-2.324219-2.390625-6.125-.0625-8.484375 2.324218-2.359375 6.125-2.386718 8.484375-.0625 1.796875 1.773438 3.425781 3.707032 4.871093 5.777344 1.257813 1.808594 2.367188 3.714844 3.324219 5.699219 2.703125 5.570312 4.105469 11.683593 4.101563 17.875 0 1.636719-.097656 3.273437-.292969 4.898437-.359375 3.015625-2.914063 5.285156-5.949219 5.289063-.242187 0-.484375-.015625-.722656-.042969-3.289062-.394531-5.636719-3.382812-5.242188-6.671875.136719-1.152344.207032-2.316406.207032-3.476563.003906-4.386718-.992188-8.71875-2.90625-12.664062-.679688-1.410156-1.472656-2.765625-2.363282-4.050781-1.023437-1.464844-2.179687-2.835938-3.449218-4.089844zm0 0"/><path d="m414.144531 42.898438h39.730469c-15.070312-24.363282-40.890625-40.039063-69.460938-42.164063v12.429687c0 16.421876 13.3125 29.734376 29.734376 29.734376zm0 0"/><path d="m307.285156 101.492188c-.007812-7.007813-5.683594-12.683594-12.691406-12.691407h-15.808594c-.183594 1.726563-.320312 3.46875-.417968 5.222657-.070313 1.207031-.128907 11.027343-.152344 20.160156h16.378906c7.007812-.007813 12.683594-5.6875 12.691406-12.691406zm0 0"/><path d="m414.144531 54.898438c-23.050781 0-41.734375-18.6875-41.734375-41.734376v-12.582031c-11.644531.542969-23.105468 3.140625-33.847656 7.671875v18.933594c0 19.910156-16.140625 36.046875-36.046875 36.046875h-17.511719c-1.722656 4.414063-3.128906 8.949219-4.199218 13.566406h13.789062c8.859375-.054687 17.070312 4.636719 21.515625 12.300781 4.445313 7.660157 4.445313 17.117188 0 24.78125-4.445313 7.660157-12.65625 12.355469-21.515625 12.300782h-20.035156l-16.199219 42.429687h29.015625c3.3125 0 6 2.6875 6 6v34.46875c0 4.683594 1.894531 9.171875 5.253906 12.4375s7.898438 5.03125 12.582032 4.894531c1.335937-.039062 11.714843-.097656 30.847656-.183593h.164062c15.726563-.066407 29.445313-10.679688 33.464844-25.882813-24.671875-3.746094-44.164062-22.882812-48.363281-47.484375-4.199219-24.597656 7.84375-49.117187 29.875-60.835937s49.09375-7.996094 67.144531 9.234375l43.585938-10.851563c-.179688-12.234375-2.8125-24.308594-7.738282-35.507812zm0 0"/><path d="m442.320312 143.125c0 17.070312-7.546874 33.265625-20.617187 44.242188l8.144531 12.007812c.675782.992188 1.035156 2.167969 1.035156 3.367188v35.429687c7.207032 2.894531 11.34375 10.496094 9.863282 18.117187-1.480469 7.621094-8.164063 13.121094-15.929688 13.105469-7.765625-.019531-14.425781-5.546875-15.875-13.175781-1.449218-7.628906 2.722656-15.210938 9.941406-18.070312v-33.5625l-7.101562-10.460938c-7.378906 3.972656-15.539062 6.285156-23.90625 6.769531-3.207031 15.457031-13.972656 28.261719-28.644531 34.082031 1.5625 2.160157 2.699219 4.597657 3.355469 7.183594.121093.480469.183593.972656.179687 1.464844v70.941406h17.640625v-43.53125c-7.210938-2.878906-11.363281-10.46875-9.898438-18.09375 1.464844-7.621094 8.132813-13.132812 15.898438-13.132812 7.761719 0 14.433594 5.511718 15.898438 13.132812 1.464843 7.625-2.6875 15.214844-9.898438 18.09375v43.53125h26.480469v-7.910156c0-3.3125 2.6875-6 6-6s6 2.6875 6 6v7.910156h13.367187c-.738281-23.246094-2.984375-104.101562.230469-138.65625 1.140625-12.25 11.558594-38.25 12.742187-41.175781.074219-.179687.152344-.355469.242188-.527344 5.105469-9.75 8.417969-20.339843 9.78125-31.261719l-34.367188 8.554688c6.167969 9.394531 9.449219 20.386719 9.4375 31.625zm-11.4375 141.726562c0 3.3125-2.6875 6-6 6s-6-2.6875-6-6v-.152343c0-3.3125 2.6875-6 6-6s6 2.6875 6 6zm0 0"/><path d="m386.402344 251.816406c-2.316406 0-4.191406 1.875-4.191406 4.191406 0 2.3125 1.875 4.191407 4.191406 4.191407 2.3125 0 4.191406-1.878907 4.191406-4.195313-.007812-2.308594-1.878906-4.183594-4.191406-4.1875zm0 0"/><path d="m189.738281 115.519531c-.023437-9.484375-.085937-20.230469-.152343-21.457031-2.753907-52.554688-46.226563-93.71875-98.851563-93.597656-.378906 0-.75 0-1.128906.007812-.855469.007813-1.707031.027344-2.558594.058594-30.90625 1.09375-59.0625 18.054688-74.472656 44.863281-15.988281 27.257813-16.777344 60.835938-2.089844 88.8125.089844.171875.167969.347657.242187.527344 1.183594 2.925781 11.597657 28.925781 12.742188 41.175781 3.214844 34.550782.96875 115.410156.230469 138.65625h81.488281v-70.941406c-.003906-.492188.058594-.984375.179688-1.464844.65625-2.585937 1.792968-5.023437 3.355468-7.183594-16.5-6.519531-27.890625-21.808593-29.421875-39.480468-.21875-2.160156.75-4.269532 2.527344-5.511719 1.773437-1.246094 4.085937-1.4375 6.039063-.496094 1.957031.941407 3.253906 2.863281 3.390624 5.027344 1.5625 17.894531 16.507813 31.644531 34.46875 31.714844h.160157c19.132812.078125 29.511719.140625 30.851562.183593 4.683594.132813 9.21875-1.632812 12.578125-4.898437s5.257813-7.75 5.257813-12.433594v-34.464843c0-3.316407 2.6875-6 6-6h29.019531l-19.457031-50.96875c-.261719-.679688-.394531-1.398438-.398438-2.128907zm0 0"/></svg>